<svg width="26" height="25" viewBox="0 0 26 25" fill="none" xmlns="http://www.w3.org/2000/svg">
<path d="M19.3953 9.25011H19.3956C20.0621 9.24972 20.7037 9.50285 21.1904 9.95816C21.675 10.4115 21.9699 11.0315 22.0158 11.6934L22.0205 11.8473C20.7607 11.0688 19.2881 10.6835 17.7933 10.7546C15.9607 10.8419 14.2264 11.6091 12.9291 12.9064C11.6318 14.2037 10.8646 15.938 10.7773 17.7706C10.7061 19.2657 11.0917 20.7387 11.8705 21.9987C11.2134 21.9923 10.5822 21.7397 10.102 21.2901C9.61753 20.8365 9.32293 20.2163 9.27729 19.5545L9.27155 19.3662V11.8739V11.8738C9.27145 11.2073 9.52485 10.5658 9.98034 10.0793C10.4336 9.59518 11.0532 9.30066 11.7145 9.2547L11.9014 9.25011H19.3953ZM7.02866 10.9995L7.02822 11.0071L7.028 11.0147L7.02175 11.2347L7.02155 11.2418V11.2489V17.3725C6.66997 17.2946 6.33629 17.1449 6.04228 16.9307L5.74785 17.3349L6.04228 16.9307C5.61095 16.6165 5.2856 16.1784 5.10941 15.6748L5.04974 15.4797L3.11076 8.24443L3.11071 8.24426C2.93797 7.60057 3.01653 6.91527 3.33046 6.32737C3.64295 5.74218 4.16536 5.29711 4.7925 5.08149L4.97382 5.02755L12.211 3.08807L12.211 3.08806C12.8262 2.92315 13.4803 2.98752 14.0516 3.26917C14.6204 3.54963 15.0683 4.02648 15.3127 4.61147L15.3753 4.77822L15.4282 4.95249L15.9763 6.99886H11.2716C11.2716 6.99886 11.2716 6.99886 11.2716 6.99886C10.1875 6.99881 9.14443 7.41299 8.35571 8.15668C7.56699 8.90037 7.09226 9.91735 7.02866 10.9995ZM23.2716 18.1251C23.2716 18.7981 23.139 19.4646 22.8814 20.0864C22.6239 20.7082 22.2464 21.2731 21.7705 21.749C21.2946 22.2249 20.7296 22.6024 20.1078 22.86C19.486 23.1175 18.8196 23.2501 18.1466 23.2501C17.4735 23.2501 16.8071 23.1175 16.1853 22.86C15.5635 22.6024 14.9985 22.2249 14.5226 21.749C14.0467 21.2731 13.6692 20.7082 13.4117 20.0864C13.1541 19.4646 13.0216 18.7981 13.0216 18.1251C13.0216 16.7659 13.5615 15.4623 14.5226 14.5012C15.4838 13.5401 16.7873 13.0001 18.1466 13.0001C19.5058 13.0001 20.8093 13.5401 21.7705 14.5012C22.7316 15.4623 23.2716 16.7659 23.2716 18.1251ZM19.2716 15.6251C19.2716 15.3267 19.153 15.0406 18.942 14.8296C18.7311 14.6186 18.4449 14.5001 18.1466 14.5001C17.8482 14.5001 17.562 14.6186 17.3511 14.8296C17.1401 15.0406 17.0216 15.3267 17.0216 15.6251V17.0001H15.6466C15.3482 17.0001 15.062 17.1186 14.8511 17.3296C14.6401 17.5406 14.5216 17.8267 14.5216 18.1251C14.5216 18.4235 14.6401 18.7096 14.8511 18.9206C15.062 19.1316 15.3482 19.2501 15.6466 19.2501H17.0216V20.6251C17.0216 20.9235 17.1401 21.2096 17.3511 21.4206C17.562 21.6316 17.8482 21.7501 18.1466 21.7501C18.4449 21.7501 18.7311 21.6316 18.942 21.4206C19.153 21.2096 19.2716 20.9235 19.2716 20.6251V19.2501H20.6466C20.9449 19.2501 21.2311 19.1316 21.442 18.9206C21.653 18.7096 21.7716 18.4235 21.7716 18.1251C21.7716 17.8267 21.653 17.5406 21.442 17.3296C21.2311 17.1186 20.9449 17.0001 20.6466 17.0001H19.2716V15.6251Z" fill="white" stroke="#F0F0F0"/>
</svg>
