<svg width="25" height="26" viewBox="0 0 25 26" fill="white" xmlns="http://www.w3.org/2000/svg">
<path d="M5.74984 10.9167V11.4167H6.24984H8.33317C8.62994 11.4167 8.87484 11.6616 8.87484 11.9584C8.87484 12.2552 8.62994 12.5001 8.33317 12.5001H6.24984H5.74984V13.0001V15.0834C5.74984 15.3802 5.50494 15.6251 5.20817 15.6251C4.9114 15.6251 4.6665 15.3802 4.6665 15.0834V13.0001V12.5001H4.1665H2.08317C1.7864 12.5001 1.5415 12.2552 1.5415 11.9584C1.5415 11.6616 1.7864 11.4167 2.08317 11.4167H4.1665H4.6665V10.9167V8.83341C4.6665 8.53664 4.9114 8.29175 5.20817 8.29175C5.50494 8.29175 5.74984 8.53664 5.74984 8.83341V10.9167ZM19.2915 8.83341C19.2915 10.8594 17.6508 12.5001 15.6248 12.5001C13.5989 12.5001 11.9582 10.8594 11.9582 8.83341C11.9582 6.80747 13.5989 5.16675 15.6248 5.16675C17.6508 5.16675 19.2915 6.80747 19.2915 8.83341ZM7.7915 19.2501C7.7915 18.741 8.04255 18.2581 8.54159 17.7975C9.04403 17.3338 9.76381 16.9273 10.6011 16.5918C12.2766 15.9206 14.2967 15.5834 15.6248 15.5834C16.953 15.5834 18.9731 15.9206 20.6485 16.5918C21.4859 16.9273 22.2056 17.3338 22.7081 17.7975C23.2071 18.2581 23.4582 18.741 23.4582 19.2501V20.2917C23.4582 20.5885 23.2133 20.8334 22.9165 20.8334H8.33317C8.0364 20.8334 7.7915 20.5885 7.7915 20.2917V19.2501Z" stroke="#F0F0F0"/>
</svg>
