<svg width="26" height="25" viewBox="0 0 26 25" fill="white" xmlns="http://www.w3.org/2000/svg">
<path d="M13.1672 2.08325C18.9203 2.08325 23.5838 6.74679 23.5838 12.4999C23.5838 18.253 18.9203 22.9166 13.1672 22.9166C11.482 22.9188 9.82162 22.5105 8.32966 21.727L3.86091 22.8905C3.7116 22.9294 3.55471 22.9286 3.4058 22.8882C3.25689 22.8478 3.12113 22.7691 3.01197 22.6601C2.90281 22.551 2.82405 22.4154 2.78348 22.2665C2.74292 22.1176 2.74196 21.9607 2.78071 21.8114L3.94321 17.3437C3.15758 15.8501 2.74818 14.1875 2.7505 12.4999C2.7505 6.74679 7.41404 2.08325 13.1672 2.08325ZM14.4713 13.5416H9.78175L9.6755 13.5489C9.48851 13.5746 9.31715 13.6672 9.19311 13.8094C9.06907 13.9517 9.00074 14.1341 9.00074 14.3228C9.00074 14.5116 9.06907 14.694 9.19311 14.8362C9.31715 14.9785 9.48851 15.0711 9.6755 15.0968L9.78175 15.1041H14.4713L14.5765 15.0968C14.7635 15.0711 14.9349 14.9785 15.0589 14.8362C15.183 14.694 15.2513 14.5116 15.2513 14.3228C15.2513 14.1341 15.183 13.9517 15.0589 13.8094C14.9349 13.6672 14.7635 13.5746 14.5765 13.5489L14.4713 13.5416ZM16.5526 9.89575H9.78175L9.6755 9.90304C9.48851 9.92877 9.31715 10.0213 9.19311 10.1636C9.06907 10.3059 9.00074 10.4882 9.00074 10.677C9.00074 10.8658 9.06907 11.0481 9.19311 11.1904C9.31715 11.3327 9.48851 11.4252 9.6755 11.451L9.78175 11.4583H16.5526L16.6588 11.451C16.8458 11.4252 17.0172 11.3327 17.1412 11.1904C17.2653 11.0481 17.3336 10.8658 17.3336 10.677C17.3336 10.4882 17.2653 10.3059 17.1412 10.1636C17.0172 10.0213 16.8458 9.92877 16.6588 9.90304L16.5526 9.89575Z"/>
</svg>
