<svg width="26" height="25" viewBox="0 0 26 25" fill="none" xmlns="http://www.w3.org/2000/svg">
<path d="M11.3468 20.4948L11.3461 20.4942C8.654 18.053 6.45968 16.0597 4.93254 14.1914C3.4109 12.3298 2.604 10.6533 2.604 8.85417C2.604 5.91215 4.90038 3.625 7.83317 3.625C9.49452 3.625 11.0973 4.40098 12.1413 5.61731L12.5207 6.05938L12.9001 5.61731C13.944 4.40098 15.5468 3.625 17.2082 3.625C20.141 3.625 22.4373 5.91215 22.4373 8.85417C22.4373 10.6533 21.6304 12.3298 20.1088 14.1914C18.5817 16.0597 16.3873 18.053 13.6952 20.4942L13.6945 20.4948L12.5207 21.5634L11.3468 20.4948Z" fill="white" stroke="#F0F0F0"/>
</svg>
