<svg width="51" height="50" viewBox="0 0 51 50" fill="white" xmlns="http://www.w3.org/2000/svg">
<path d="M16.8853 25C19.0401 25 21.1068 24.144 22.6305 22.6202C24.1542 21.0965 25.0103 19.0299 25.0103 16.875C25.0103 14.7201 24.1542 12.6535 22.6305 11.1298C21.1068 9.60602 19.0401 8.75 16.8853 8.75C14.7304 8.75 12.6637 9.60602 11.14 11.1298C9.61628 12.6535 8.76025 14.7201 8.76025 16.875C8.76025 19.0299 9.61628 21.0965 11.14 22.6202C12.6637 24.144 14.7304 25 16.8853 25ZM31.1028 37.8625C32.4278 38.405 34.1128 38.75 36.2578 38.75C46.2578 38.75 46.2578 31.25 46.2578 31.25C46.2578 30.2559 45.863 29.3024 45.1603 28.5992C44.4576 27.896 43.5044 27.5007 42.5103 27.5H30.9403C31.9228 28.69 32.5128 30.2125 32.5128 31.875V32.765C32.5076 32.9755 32.4935 33.1857 32.4703 33.395C32.3016 34.957 31.8359 36.4729 31.1028 37.8625ZM42.5103 18.75C42.5103 20.4076 41.8518 21.9973 40.6797 23.1694C39.5076 24.3415 37.9179 25 36.2603 25C34.6027 25 33.0129 24.3415 31.8408 23.1694C30.6687 21.9973 30.0103 20.4076 30.0103 18.75C30.0103 17.0924 30.6687 15.5027 31.8408 14.3306C33.0129 13.1585 34.6027 12.5 36.2603 12.5C37.9179 12.5 39.5076 13.1585 40.6797 14.3306C41.8518 15.5027 42.5103 17.0924 42.5103 18.75ZM3.76025 32.5C3.76025 31.1739 4.28704 29.9021 5.22472 28.9645C6.1624 28.0268 7.43417 27.5 8.76025 27.5H25.0103C26.3363 27.5 27.6081 28.0268 28.5458 28.9645C29.4835 29.9021 30.0103 31.1739 30.0103 32.5C30.0103 32.5 30.0103 42.5 16.8853 42.5C3.76025 42.5 3.76025 32.5 3.76025 32.5Z"/>
</svg>
