<svg width="51" height="50" viewBox="0 0 51 50" fill="none" xmlns="http://www.w3.org/2000/svg">
<path d="M18.7436 8.30833C18.11 7.94642 17.3925 7.75723 16.6628 7.7597C15.9332 7.76216 15.217 7.95619 14.5859 8.32238C13.9547 8.68856 13.4308 9.21406 13.0666 9.8463C12.7023 10.4785 12.5105 11.1953 12.5103 11.925V38.0792C12.5105 38.8088 12.7023 39.5256 13.0666 40.1579C13.4308 40.7901 13.9547 41.3156 14.5859 41.6818C15.217 42.048 15.9332 42.242 16.6628 42.2445C17.3925 42.2469 18.11 42.0577 18.7436 41.6958L41.6269 28.6167C42.2642 28.2521 42.7939 27.7256 43.1622 27.0905C43.5306 26.4554 43.7246 25.7342 43.7246 25C43.7246 24.2658 43.5306 23.5446 43.1622 22.9095C42.7939 22.2744 42.2642 21.7479 41.6269 21.3833L18.7436 8.30833Z" fill="white"/>
</svg>
