<svg width="51" height="50" viewBox="0 0 51 50" fill="none" xmlns="http://www.w3.org/2000/svg">
<path d="M6.76025 12.5C6.76025 10.8424 7.41873 9.25268 8.59084 8.08058C9.76294 6.90848 11.3527 6.25 13.0103 6.25H38.0103C39.6679 6.25 41.2576 6.90848 42.4297 8.08058C43.6018 9.25268 44.2603 10.8424 44.2603 12.5C44.2603 14.1576 43.6018 15.7473 42.4297 16.9194C41.2576 18.0915 39.6679 18.75 38.0103 18.75H13.0103C11.3527 18.75 9.76294 18.0915 8.59084 16.9194C7.41873 15.7473 6.76025 14.1576 6.76025 12.5ZM6.76025 28.9062C6.76025 28.2846 7.00718 27.6885 7.44672 27.249C7.88626 26.8094 8.4824 26.5625 9.104 26.5625H41.9165C42.5381 26.5625 43.1342 26.8094 43.5738 27.249C44.0133 27.6885 44.2603 28.2846 44.2603 28.9062C44.2603 29.5279 44.0133 30.124 43.5738 30.5635C43.1342 31.0031 42.5381 31.25 41.9165 31.25H9.104C8.4824 31.25 7.88626 31.0031 7.44672 30.5635C7.00718 30.124 6.76025 29.5279 6.76025 28.9062ZM9.104 39.0625C8.4824 39.0625 7.88626 39.3094 7.44672 39.749C7.00718 40.1885 6.76025 40.7846 6.76025 41.4062C6.76025 42.0279 7.00718 42.624 7.44672 43.0635C7.88626 43.5031 8.4824 43.75 9.104 43.75H41.9165C42.5381 43.75 43.1342 43.5031 43.5738 43.0635C44.0133 42.624 44.2603 42.0279 44.2603 41.4062C44.2603 40.7846 44.0133 40.1885 43.5738 39.749C43.1342 39.3094 42.5381 39.0625 41.9165 39.0625H9.104Z" fill="white"/>
</svg>
