<svg width="51" height="50" viewBox="0 0 51 50" fill="none" xmlns="http://www.w3.org/2000/svg">
<path fill-rule="evenodd" clip-rule="evenodd" d="M11.4685 12.3708C11.1518 12.188 10.7926 12.0917 10.4269 12.0917C10.0612 12.0917 9.70194 12.188 9.38524 12.3708C9.06853 12.5537 8.80553 12.8166 8.62268 13.1333C8.43983 13.45 8.34356 13.8093 8.34355 14.175V35.825C8.34356 36.1907 8.43983 36.5499 8.62268 36.8666C8.80553 37.1833 9.06853 37.4463 9.38524 37.6292C9.70194 37.812 10.0612 37.9083 10.4269 37.9083C10.7926 37.9083 11.1518 37.812 11.4685 37.6292L16.6769 34.625V15.375L11.4685 12.3708ZM17.506 11.0458L13.5519 8.7625C9.38521 6.35416 4.17688 9.3625 4.17688 14.175V35.825C4.17688 40.6375 9.38521 43.6437 13.5519 41.2375L17.506 38.9542C19.1415 41.7771 22.8956 43.0604 26.0519 41.2375L44.8019 30.4125C48.9685 28.0062 48.9685 21.9937 44.8019 19.5875L26.0519 8.7625C22.8956 6.93958 19.1415 8.22291 17.506 11.0458Z" fill="white"/>
</svg>
