<svg width="26" height="25" viewBox="0 0 26 25" fill="none" xmlns="http://www.w3.org/2000/svg">
<path d="M11.1713 5.67259L11.1715 5.67244C12.0904 5.02037 13.4026 5.51133 13.601 6.65237L13.601 6.65248C13.9315 8.55138 14.104 10.506 14.104 12.5001C14.104 14.4941 13.9315 16.4477 13.601 18.3488C13.4027 19.4886 12.0914 19.9802 11.1711 19.3285L8.58077 17.4912L8.57982 17.4905C8.31963 17.3069 8.00894 17.2083 7.69046 17.2084C7.6904 17.2084 7.69034 17.2084 7.69028 17.2084H5.229C4.53281 17.2084 3.86513 16.9318 3.37285 16.4396C2.88057 15.9473 2.604 15.2796 2.604 14.5834V10.4167C2.604 9.72055 2.88057 9.05287 3.37285 8.56059C3.86513 8.06831 4.53281 7.79174 5.229 7.79174H7.69046H7.69049C8.00972 7.79173 8.32108 7.69261 8.58157 7.50808L8.58167 7.50801L11.1713 5.67259ZM18.1395 9.32257L18.1394 9.32258L18.1401 9.33079C18.3141 11.4385 18.3142 13.557 18.1404 15.6648C18.1257 15.8049 18.057 15.9339 17.9487 16.0242C17.8395 16.1152 17.699 16.1597 17.5573 16.1481C17.4157 16.1364 17.2843 16.0695 17.1915 15.9619C17.0994 15.8551 17.0527 15.7166 17.061 15.576C17.2297 13.5273 17.2296 11.4681 17.0606 9.4194L17.0607 9.4194L17.0599 9.4114C17.0529 9.33988 17.0601 9.26766 17.0812 9.19897C17.1024 9.13026 17.137 9.06646 17.183 9.01127C17.229 8.95608 17.2856 8.91059 17.3494 8.87748C17.4132 8.84436 17.4829 8.82427 17.5545 8.81838C17.6262 8.81248 17.6983 8.8209 17.7666 8.84314C17.835 8.86539 17.8982 8.90101 17.9526 8.94794C18.0071 8.99486 18.0516 9.05216 18.0837 9.11647C18.1158 9.18079 18.1347 9.25085 18.1395 9.32257Z" fill="white" stroke="#F0F0F0"/>
</svg>
