<svg width="43" height="35" viewBox="0 0 43 35" fill="none" xmlns="http://www.w3.org/2000/svg">
<path d="M1.51019 32.9546V31.1364C1.51019 24.1073 7.20839 18.4091 14.2375 18.4091C21.2666 18.4091 26.9647 24.1073 26.9647 31.1364V32.9546" stroke="#F0F0F0" stroke-width="3" stroke-linecap="round"/>
<path d="M23.3284 22.0455C23.3284 17.0247 27.3986 12.9546 32.4193 12.9546C37.44 12.9546 41.5102 17.0247 41.5102 22.0455V22.9546" stroke="#F0F0F0" stroke-width="3" stroke-linecap="round"/>
<path d="M14.2374 18.4091C18.254 18.4091 21.5102 15.1529 21.5102 11.1364C21.5102 7.11976 18.254 3.86366 14.2374 3.86366C10.2208 3.86366 6.96472 7.11976 6.96472 11.1364C6.96472 15.1529 10.2208 18.4091 14.2374 18.4091Z" stroke="#F0F0F0" stroke-width="3" stroke-linecap="round" stroke-linejoin="round"/>
<path d="M32.4193 12.9546C35.4318 12.9546 37.8738 10.5125 37.8738 7.50002C37.8738 4.48756 35.4318 2.04547 32.4193 2.04547C29.4067 2.04547 26.9647 4.48756 26.9647 7.50002C26.9647 10.5125 29.4067 12.9546 32.4193 12.9546Z" stroke="#F0F0F0" stroke-width="3" stroke-linecap="round" stroke-linejoin="round"/>
</svg>
