<svg width="33" height="32" viewBox="0 0 33 32" fill="none" xmlns="http://www.w3.org/2000/svg">
<g clip-path="url(#clip0_188_949)">
<path d="M0.510193 6.85714C0.510193 5.03852 1.23264 3.29437 2.5186 2.00841C3.80457 0.722447 5.54871 0 7.36734 0H25.6531C27.4717 0 29.2158 0.722447 30.5018 2.00841C31.7877 3.29437 32.5102 5.03852 32.5102 6.85714V25.1429C32.5102 26.9615 31.7877 28.7056 30.5018 29.9916C29.2158 31.2776 27.4717 32 25.6531 32H17.9868C18.73 31.3441 19.3621 30.5722 19.8588 29.7143H25.6531C26.8655 29.7143 28.0282 29.2327 28.8855 28.3753C29.7428 27.518 30.2245 26.3553 30.2245 25.1429V6.85714C30.2245 5.64472 29.7428 4.48196 28.8855 3.62465C28.0282 2.76735 26.8655 2.28571 25.6531 2.28571H7.36734C6.15492 2.28571 4.99216 2.76735 4.13485 3.62465C3.27754 4.48196 2.79591 5.64472 2.79591 6.85714V12.6514C1.9378 13.1487 1.1659 13.7816 0.510193 14.5257V6.85714ZM7.36734 13.7143C5.54871 13.7143 3.80457 14.4367 2.5186 15.7227C1.23264 17.0087 0.510193 18.7528 0.510193 20.5714V25.1429C0.510193 26.9615 1.23264 28.7056 2.5186 29.9916C3.80457 31.2776 5.54871 32 7.36734 32H11.9388C13.7574 32 15.5015 31.2776 16.7875 29.9916C18.0735 28.7056 18.7959 26.9615 18.7959 25.1429V20.5714C18.7959 18.7528 18.0735 17.0087 16.7875 15.7227C15.5015 14.4367 13.7574 13.7143 11.9388 13.7143H7.36734ZM2.79591 20.5714C2.79591 19.359 3.27754 18.1963 4.13485 17.3389C4.99216 16.4816 6.15492 16 7.36734 16H11.9388C13.1512 16 14.3139 16.4816 15.1713 17.3389C16.0286 18.1963 16.5102 19.359 16.5102 20.5714V25.1429C16.5102 26.3553 16.0286 27.518 15.1713 28.3753C14.3139 29.2327 13.1512 29.7143 11.9388 29.7143H7.36734C6.15492 29.7143 4.99216 29.2327 4.13485 28.3753C3.27754 27.518 2.79591 26.3553 2.79591 25.1429V20.5714Z" fill="white"/>
</g>
<defs>
<clipPath id="clip0_188_949">
<rect width="32" height="32" fill="white" transform="translate(0.510193)"/>
</clipPath>
</defs>
</svg>
