<svg width="45" height="45" viewBox="0 0 45 45" fill="none" xmlns="http://www.w3.org/2000/svg">
<path d="M15.8435 42.9546H11.3991C6.48988 42.9546 2.51019 38.8192 2.51019 33.7181V19.1883C2.51019 15.9585 4.13377 12.9633 6.79195 11.2893L17.9031 4.29202C20.7349 2.50874 24.2855 2.50874 27.1173 4.29202L38.2284 11.2893C40.8866 12.9633 42.5102 15.9585 42.5102 19.1883V33.7181C42.5102 38.8192 38.5304 42.9546 33.6213 42.9546H29.1769M15.8435 42.9546V33.7181C15.8435 29.8922 18.8282 26.7908 22.5102 26.7908C26.1922 26.7908 29.1769 29.8922 29.1769 33.7181V42.9546M15.8435 42.9546H29.1769" stroke="#F0F0F0" stroke-width="3" stroke-linecap="round" stroke-linejoin="round"/>
</svg>
