<svg width="33" height="32" viewBox="0 0 33 32" fill="none" xmlns="http://www.w3.org/2000/svg">
<path d="M21.8135 14.3033C20.407 15.7098 18.4993 16.5 16.5102 16.5C14.5211 16.5 12.6134 15.7098 11.2069 14.3033C9.80037 12.8968 9.01019 10.9891 9.01019 9C9.01019 7.01088 9.80037 5.10322 11.2069 3.6967C12.6134 2.29018 14.5211 1.5 16.5102 1.5C18.4993 1.5 20.407 2.29018 21.8135 3.6967C23.22 5.10322 24.0102 7.01088 24.0102 9C24.0102 10.9891 23.22 12.8968 21.8135 14.3033ZM2.01019 30.0812C2.01019 25.3409 5.85112 21.5 10.5914 21.5H22.4289C27.1693 21.5 31.0102 25.3409 31.0102 30.0812C31.0102 30.3123 30.8223 30.5 30.5914 30.5H2.42894C2.19794 30.5 2.01019 30.3121 2.01019 30.0812Z" stroke="#F0F0F0" stroke-width="3"/>
</svg>
