<svg width="43" height="44" viewBox="0 0 43 44" fill="none" xmlns="http://www.w3.org/2000/svg">
<path d="M1.51019 37.601V6.48992C1.51019 4.03532 3.50004 2.04547 5.95464 2.04547H37.0658C39.5204 2.04547 41.5102 4.03532 41.5102 6.48992V37.601C41.5102 40.0557 39.5204 42.0455 37.0658 42.0455H5.95464C3.50004 42.0455 1.51019 40.0557 1.51019 37.601Z" stroke="#F0F0F0" stroke-width="3"/>
<path d="M25.8413 26.1559C27.2845 24.7777 28.1768 22.8759 28.1768 20.7757C28.1768 16.5677 24.5951 13.1566 20.1769 13.1566C15.7586 13.1566 12.1769 16.5677 12.1769 20.7757C12.1769 24.9835 15.7586 28.3946 20.1769 28.3946C22.3899 28.3946 24.393 27.539 25.8413 26.1559ZM25.8413 26.1559L30.8435 30.9344" stroke="#F0F0F0" stroke-width="3" stroke-linecap="round" stroke-linejoin="round"/>
</svg>
