<svg width="975" height="1080" viewBox="0 0 975 1080" fill="none" xmlns="http://www.w3.org/2000/svg">
<path fill-rule="evenodd" clip-rule="evenodd" d="M602.42 -96.3597C468.814 -100.248 324.176 -88.5654 222.988 -1.23302C124.637 83.6498 119.579 227.582 82.7323 352.164C47.0983 472.646 -29.1747 594.164 11.7596 712.949C52.538 831.282 192.291 872.913 289.398 951.877C394.189 1037.09 468.709 1174.18 602.42 1193.26C741.33 1213.08 890.413 1152.51 987.837 1051.52C1079.31 956.702 1061.72 808.632 1096.16 681.458C1128.28 562.895 1206.29 453.039 1182.59 332.513C1157.54 205.167 1070.5 97.5418 966.139 20.3935C861.176 -57.1975 732.891 -92.5629 602.42 -96.3597Z" fill="url(#paint0_linear_246_3037)"/>
<defs>
<linearGradient id="paint0_linear_246_3037" x1="482.924" y1="664.508" x2="71.1523" y2="1125.99" gradientUnits="userSpaceOnUse">
<stop stop-color="#E09145"/>
<stop offset="1" stop-color="#FCD9B8"/>
</linearGradient>
</defs>
</svg>
