<svg width="949" height="931" viewBox="0 0 949 931" fill="none" xmlns="http://www.w3.org/2000/svg">
<path fill-rule="evenodd" clip-rule="evenodd" d="M498.107 -62.6992C398.983 -45.5131 293.611 -64.4234 208.22 -11.2192C119.213 44.2381 55.0293 133.593 22.8419 233.422C-9.29846 333.104 -8.22363 442.555 30.5398 539.852C67.7932 633.36 153.699 691.198 230.93 755.729C314.651 825.684 389.275 923.059 498.107 930.536C608.935 938.15 697.387 850.351 793.348 794.367C902.331 730.786 1058.53 702.709 1095.46 582.036C1132.44 461.232 1002.19 356.891 964.102 236.434C925.547 114.493 979.131 -57.1487 871.525 -126.224C762.598 -196.146 625.632 -84.8098 498.107 -62.6992Z" fill="url(#paint0_linear_246_3038)"/>
<defs>
<linearGradient id="paint0_linear_246_3038" x1="188" y1="-4.49999" x2="917" y2="845.5" gradientUnits="userSpaceOnUse">
<stop stop-color="#E09145"/>
<stop offset="1" stop-color="#FCD9B8"/>
</linearGradient>
</defs>
</svg>
