<svg width="783" height="634" viewBox="0 0 783 634" fill="none" xmlns="http://www.w3.org/2000/svg">
<path fill-rule="evenodd" clip-rule="evenodd" d="M441.998 -109.994C368.415 -104.937 289.19 -97.0691 234.327 -47.7373C181.703 -0.419556 194.163 85.0501 157.646 145.687C114.011 218.145 11.8284 255.081 1.40466 339.034C-9.12244 423.82 40.8999 511.5 105.256 567.641C167.043 621.541 255.796 624.389 337.397 632.139C406.395 638.692 472.935 627.224 539.785 608.912C607.823 590.274 678.543 573.791 729.313 524.781C782.456 473.479 807.75 402.301 827.553 331.115C849.736 251.375 880.524 166.071 850.565 88.9187C820.203 10.7248 744.23 -40.9016 668.848 -77.6015C598.743 -111.733 519.777 -115.34 441.998 -109.994Z" fill="url(#paint0_linear_246_3039)"/>
<defs>
<linearGradient id="paint0_linear_246_3039" x1="767.621" y1="205.892" x2="-139.243" y2="205.892" gradientUnits="userSpaceOnUse">
<stop stop-color="#E09145"/>
<stop offset="1" stop-color="#FCD9B8"/>
</linearGradient>
</defs>
</svg>
