<svg width="25" height="25" viewBox="0 0 25 25" xmlns="http://www.w3.org/2000/svg">
<path d="M9.37516 5.20833C10.4585 5.20833 11.521 5.45833 12.5002 5.91666C13.4793 5.45833 14.5418 5.20833 15.6252 5.20833C17.559 5.20833 19.4137 5.97656 20.7812 7.34401C22.1486 8.71146 22.9168 10.5661 22.9168 12.5C22.9168 14.4339 22.1486 16.2885 20.7812 17.656C19.4137 19.0234 17.559 19.7917 15.6252 19.7917C14.5418 19.7917 13.4793 19.5417 12.5002 19.0833C11.521 19.5417 10.4585 19.7917 9.37516 19.7917C7.44129 19.7917 5.58663 19.0234 4.21918 17.656C2.85172 16.2885 2.0835 14.4339 2.0835 12.5C2.0835 10.5661 2.85172 8.71146 4.21918 7.34401C5.58663 5.97656 7.44129 5.20833 9.37516 5.20833ZM8.85433 12.5C8.85433 14.4479 9.67725 16.2083 11.0002 17.4479L12.0418 16.9687C10.7397 15.9271 9.896 14.3125 9.896 12.5C9.896 10.6875 10.7397 9.07291 12.0418 8.03124L11.0002 7.55208C10.3221 8.18545 9.78173 8.9516 9.41257 9.80283C9.0434 10.6541 8.85338 11.5722 8.85433 12.5ZM16.146 12.5C16.146 10.5521 15.3231 8.79166 14.0002 7.55208L12.9585 8.03124C14.2606 9.07291 15.1043 10.6875 15.1043 12.5C15.1043 14.3125 14.2606 15.9271 12.9585 16.9687L14.0002 17.4479C14.6782 16.8145 15.2186 16.0484 15.5878 15.1972C15.9569 14.3459 16.1469 13.4278 16.146 12.5Z" />
</svg>
