<svg width="25" height="25" viewBox="0 0 25 25" fill="white" xmlns="http://www.w3.org/2000/svg">
<g clip-path="url(#clip0_153_667)">
<path d="M18.7498 2.08334C19.3024 2.08334 19.8323 2.30284 20.223 2.69354C20.6137 3.08424 20.8332 3.61414 20.8332 4.16668V20.8333C20.8332 21.3859 20.6137 21.9158 20.223 22.3065C19.8323 22.6972 19.3024 22.9167 18.7498 22.9167H6.24984C5.6973 22.9167 5.1674 22.6972 4.7767 22.3065C4.386 21.9158 4.1665 21.3859 4.1665 20.8333V4.16668C4.1665 3.61414 4.386 3.08424 4.7767 2.69354C5.1674 2.30284 5.6973 2.08334 6.24984 2.08334H18.7498ZM12.4998 13.5417H9.37484C9.09857 13.5417 8.83362 13.6514 8.63827 13.8468C8.44292 14.0421 8.33317 14.3071 8.33317 14.5833C8.33317 14.8596 8.44292 15.1246 8.63827 15.3199C8.83362 15.5153 9.09857 15.625 9.37484 15.625H12.4998C12.7761 15.625 13.0411 15.5153 13.2364 15.3199C13.4318 15.1246 13.5415 14.8596 13.5415 14.5833C13.5415 14.3071 13.4318 14.0421 13.2364 13.8468C13.0411 13.6514 12.7761 13.5417 12.4998 13.5417ZM15.6248 8.33334H9.37484C9.10934 8.33364 8.85397 8.4353 8.66091 8.61756C8.46785 8.79982 8.35168 9.04892 8.33612 9.31396C8.32056 9.57901 8.40679 9.83999 8.5772 10.0436C8.7476 10.2472 8.98932 10.378 9.25296 10.4094L9.37484 10.4167H15.6248C15.8903 10.4164 16.1457 10.3147 16.3388 10.1325C16.5318 9.9502 16.648 9.7011 16.6636 9.43606C16.6791 9.17101 16.5929 8.91003 16.4225 8.70643C16.2521 8.50284 16.0104 8.37199 15.7467 8.34063L15.6248 8.33334Z" />
</g>
<defs>
<clipPath id="clip0_153_667">
<rect width="25" height="25" fill="white"/>
</clipPath>
</defs>
</svg>
