<svg width="25" height="25" viewBox="0 0 25 25" fill="white" xmlns="http://www.w3.org/2000/svg">
<g clip-path="url(#clip0_189_1202)">
<path d="M20.8335 3.125C21.3591 3.12483 21.8653 3.32334 22.2507 3.68073C22.6361 4.03811 22.8722 4.52796 22.9116 5.05208L22.9168 5.20833V19.7917C22.917 20.3173 22.7185 20.8235 22.3611 21.2089C22.0037 21.5943 21.5139 21.8304 20.9897 21.8698L20.8335 21.875H4.16683C3.64123 21.8752 3.13499 21.6767 2.74959 21.3193C2.36419 20.9619 2.12812 20.472 2.0887 19.9479L2.0835 19.7917V5.20833C2.08333 4.68273 2.28184 4.17649 2.63922 3.7911C2.99661 3.4057 3.48646 3.16963 4.01058 3.13021L4.16683 3.125H20.8335ZM20.8335 17.7083H18.7502V19.7917H20.8335V17.7083ZM6.25016 17.7083H4.16683V19.7917H6.25016V17.7083ZM20.8335 13.5417H18.7502V15.625H20.8335V13.5417ZM6.25016 13.5417H4.16683V15.625H6.25016V13.5417ZM20.8335 9.375H18.7502V11.4583H20.8335V9.375ZM6.25016 9.375H4.16683V11.4583H6.25016V9.375ZM20.8335 5.20833H18.7502V7.29167H20.8335V5.20833ZM6.25016 5.20833H4.16683V7.29167H6.25016V5.20833Z" />
</g>
<defs>
<clipPath id="clip0_189_1202">
<rect width="25" height="25" fill="white"/>
</clipPath>
</defs>
</svg>
