<svg width="51" height="46" viewBox="0 0 51 46" fill="white" xmlns="http://www.w3.org/2000/svg">
<path d="M45.5102 0.5C46.7716 0.499601 47.9866 0.976016 48.9116 1.83374C49.8365 2.69147 50.4031 3.86711 50.4977 5.125L50.5102 5.5V40.5C50.5106 41.7614 50.0342 42.9764 49.1765 43.9014C48.3187 44.8263 47.1431 45.3929 45.8852 45.4875L45.5102 45.5H5.51019C4.24875 45.5004 3.03378 45.024 2.10882 44.1663C1.18387 43.3085 0.617301 42.1329 0.522693 40.875L0.510193 40.5V5.5C0.509794 4.23856 0.986209 3.02358 1.84394 2.09863C2.70166 1.17368 3.8773 0.607109 5.13519 0.512501L5.51019 0.5H45.5102ZM45.5102 35.5H40.5102V40.5H45.5102V35.5ZM10.5102 35.5H5.51019V40.5H10.5102V35.5ZM45.5102 25.5H40.5102V30.5H45.5102V25.5ZM10.5102 25.5H5.51019V30.5H10.5102V25.5ZM45.5102 15.5H40.5102V20.5H45.5102V15.5ZM10.5102 15.5H5.51019V20.5H10.5102V15.5ZM45.5102 5.5H40.5102V10.5H45.5102V5.5ZM10.5102 5.5H5.51019V10.5H10.5102V5.5Z"/>
</svg>
