<svg width="49" height="48" viewBox="0 0 49 48" fill="white" xmlns="http://www.w3.org/2000/svg">
<path d="M0.93873 8.46429C0.93873 6.33308 1.78535 4.28917 3.29234 2.78218C4.79933 1.27519 6.84324 0.428574 8.97444 0.428574H40.0459C42.1771 0.428574 44.221 1.27519 45.728 2.78218C47.235 4.28917 48.0816 6.33308 48.0816 8.46429V39.5357C48.0816 41.1879 47.5823 42.7243 46.7273 44.0014L27.5059 25.215C26.7051 24.4323 25.6299 23.9941 24.5102 23.9941C23.3904 23.9941 22.3152 24.4323 21.5144 25.215L2.29302 44.0014C1.40778 42.6805 0.93628 41.1258 0.93873 39.5357V8.46429ZM4.5773 46.2643C5.84159 47.0893 7.3523 47.5714 8.97444 47.5714H40.0459C41.668 47.5714 43.1787 47.0893 44.443 46.2643L25.2602 27.5143C25.0599 27.318 24.7906 27.208 24.5102 27.208C24.2297 27.208 23.9604 27.318 23.7602 27.5143L4.5773 46.2643ZM38.9744 15.4286C38.9744 14.1499 38.4665 12.9235 37.5623 12.0193C36.6581 11.1151 35.4317 10.6071 34.153 10.6071C32.8743 10.6071 31.6479 11.1151 30.7438 12.0193C29.8396 12.9235 29.3316 14.1499 29.3316 15.4286C29.3316 16.7073 29.8396 17.9336 30.7438 18.8378C31.6479 19.742 32.8743 20.25 34.153 20.25C35.4317 20.25 36.6581 19.742 37.5623 18.8378C38.4665 17.9336 38.9744 16.7073 38.9744 15.4286Z" />
</svg>
