<svg width="25" height="25" viewBox="0 0 25 25" fill="white" xmlns="http://www.w3.org/2000/svg">
<path d="M2.67871 6.02677C2.67871 5.13877 3.03147 4.28714 3.65938 3.65923C4.2873 3.03132 5.13893 2.67856 6.02693 2.67856H18.9734C19.8614 2.67856 20.713 3.03132 21.3409 3.65923C21.9688 4.28714 22.3216 5.13877 22.3216 6.02677V18.9732C22.3216 19.6616 22.1135 20.3018 21.7573 20.8339L13.7484 13.0062C13.4147 12.6801 12.9667 12.4975 12.5001 12.4975C12.0336 12.4975 11.5856 12.6801 11.2519 13.0062L3.243 20.8339C2.87415 20.2835 2.67769 19.6357 2.67871 18.9732V6.02677ZM4.19479 21.7768C4.72157 22.1205 5.35104 22.3214 6.02693 22.3214H18.9734C19.6492 22.3214 20.2787 22.1205 20.8055 21.7768L12.8126 13.9643C12.7292 13.8825 12.617 13.8367 12.5001 13.8367C12.3833 13.8367 12.2711 13.8825 12.1876 13.9643L4.19479 21.7768ZM18.5269 8.92856C18.5269 8.39576 18.3153 7.88478 17.9385 7.50803C17.5618 7.13128 17.0508 6.91963 16.518 6.91963C15.9852 6.91963 15.4742 7.13128 15.0975 7.50803C14.7207 7.88478 14.5091 8.39576 14.5091 8.92856C14.5091 9.46136 14.7207 9.97234 15.0975 10.3491C15.4742 10.7258 15.9852 10.9375 16.518 10.9375C17.0508 10.9375 17.5618 10.7258 17.9385 10.3491C18.3153 9.97234 18.5269 9.46136 18.5269 8.92856Z" />
</svg>
