<svg width="25" height="25" viewBox="0 0 25 25" fill="white" xmlns="http://www.w3.org/2000/svg">
<g clip-path="url(#clip0_153_623)">
<path d="M19.4095 9.55937L14.5835 11.1667V18.2292C14.5832 19.2741 14.2337 20.289 13.5906 21.1126C12.9475 21.9362 12.0477 22.5214 11.034 22.775C10.0203 23.0287 8.95089 22.9364 7.99566 22.5128C7.04043 22.0891 6.25414 21.3585 5.76169 20.4369C5.26923 19.5152 5.09884 18.4555 5.27759 17.4259C5.45635 16.3964 5.97398 15.4561 6.74828 14.7544C7.52258 14.0527 8.50915 13.6298 9.55127 13.553C10.5934 13.4761 11.6313 13.7497 12.5002 14.3302V6.71041C12.5002 6.05458 12.7065 5.41536 13.0899 4.8833C13.4734 4.35123 14.0145 3.95329 14.6366 3.74583L18.7773 2.36562C19.0121 2.2874 19.2622 2.26609 19.5069 2.30346C19.7516 2.34083 19.9839 2.4358 20.1847 2.58055C20.3855 2.72531 20.549 2.9157 20.6618 3.13604C20.7746 3.35638 20.8335 3.60037 20.8335 3.84791V7.58228C20.8337 8.01958 20.6962 8.44585 20.4407 8.80069C20.1851 9.15554 19.8244 9.42096 19.4095 9.55937Z" />
</g>
<defs>
<clipPath id="clip0_153_623">
<rect width="25" height="25" fill="white"/>
</clipPath>
</defs>
</svg>
