<svg width="38" height="50" viewBox="0 0 38 50" fill="white" xmlns="http://www.w3.org/2000/svg">
<path d="M34.0927 17.9425L22.5102 21.8V38.75C22.5095 41.2579 21.6708 43.6936 20.1273 45.6703C18.5839 47.647 16.4242 49.0513 13.9913 49.6601C11.5585 50.2689 8.99194 50.0474 6.69939 49.0307C4.40684 48.014 2.51975 46.2604 1.33785 44.0485C0.155952 41.8365 -0.252972 39.2931 0.176029 36.8222C0.605031 34.3513 1.84736 32.0946 3.70568 30.4105C5.56401 28.7264 7.93176 27.7115 10.4329 27.5271C12.9339 27.3427 15.425 27.9992 17.5102 29.3925V11.105C17.5102 9.531 18.0054 7.99689 18.9256 6.71993C19.8459 5.44298 21.1445 4.48791 22.6377 3.99L32.5752 0.677505C33.1389 0.489773 33.739 0.438644 34.3263 0.52833C34.9136 0.618016 35.4712 0.84595 35.9531 1.19336C36.435 1.54076 36.8275 1.9977 37.0982 2.52652C37.369 3.05534 37.5102 3.64092 37.5102 4.235V13.1975C37.5106 14.247 37.1808 15.2701 36.5674 16.1217C35.9541 16.9733 35.0883 17.6103 34.0927 17.9425Z" />
</svg>
