<svg width="25" height="25" viewBox="0 0 25 25" fill="white" xmlns="http://www.w3.org/2000/svg">
<g clip-path="url(#clip0_153_654)">
<path fill-rule="evenodd" clip-rule="evenodd" d="M4.16683 3.125C3.6143 3.125 3.08439 3.34449 2.69369 3.73519C2.30299 4.12589 2.0835 4.6558 2.0835 5.20833V19.7917C2.0835 20.3442 2.30299 20.8741 2.69369 21.2648C3.08439 21.6555 3.6143 21.875 4.16683 21.875H20.8335C21.386 21.875 21.9159 21.6555 22.3066 21.2648C22.6973 20.8741 22.9168 20.3442 22.9168 19.7917V5.20833C22.9168 4.6558 22.6973 4.12589 22.3066 3.73519C21.9159 3.34449 21.386 3.125 20.8335 3.125H4.16683ZM8.98454 8.98958C9.00765 8.79043 9.07699 8.59944 9.18703 8.43185C9.29706 8.26426 9.44474 8.12471 9.61829 8.02432C9.79183 7.92394 9.98644 7.86551 10.1866 7.85369C10.3867 7.84187 10.5868 7.87699 10.771 7.95625C11.296 8.18125 12.4043 8.6875 13.8085 9.49792C14.7949 10.0626 15.7479 10.6837 16.6627 11.3583C16.8234 11.478 16.954 11.6335 17.0439 11.8125C17.1339 11.9916 17.1807 12.1892 17.1807 12.3896C17.1807 12.59 17.1339 12.7876 17.0439 12.9666C16.954 13.1457 16.8234 13.3012 16.6627 13.4208C15.7479 14.0948 14.7949 14.7152 13.8085 15.2792C12.8266 15.8518 11.8124 16.3673 10.771 16.8229C10.5869 16.9024 10.3867 16.9377 10.1865 16.926C9.98625 16.9143 9.79155 16.8559 9.61794 16.7555C9.44433 16.655 9.29663 16.5154 9.18664 16.3477C9.07666 16.18 9.00745 15.9888 8.98454 15.7896C8.85858 14.6607 8.79737 13.5255 8.80121 12.3896C8.80121 10.774 8.91787 9.55729 8.98454 8.98958Z" />
</g>
<defs>
<clipPath id="clip0_153_654">
<rect width="25" height="25" fill="white"/>
</clipPath>
</defs>
</svg>
