<svg width="51" height="46" viewBox="0 0 51 46" fill="white" xmlns="http://www.w3.org/2000/svg">
<path fill-rule="evenodd" clip-rule="evenodd" d="M5.51019 0.5C4.18411 0.5 2.91234 1.02678 1.97466 1.96447C1.03698 2.90215 0.510193 4.17392 0.510193 5.5V40.5C0.510193 41.8261 1.03698 43.0979 1.97466 44.0355C2.91234 44.9732 4.18411 45.5 5.51019 45.5H45.5102C46.8363 45.5 48.108 44.9732 49.0457 44.0355C49.9834 43.0979 50.5102 41.8261 50.5102 40.5V5.5C50.5102 4.17392 49.9834 2.90215 49.0457 1.96447C48.108 1.02678 46.8363 0.5 45.5102 0.5H5.51019ZM17.0727 14.575C17.1282 14.097 17.2946 13.6387 17.5587 13.2364C17.8228 12.8342 18.1772 12.4993 18.5937 12.2584C19.0102 12.0175 19.4773 11.8772 19.9576 11.8489C20.4379 11.8205 20.9182 11.9048 21.3602 12.095C22.6202 12.635 25.2802 13.85 28.6502 15.795C31.0176 17.1502 33.3047 18.641 35.5002 20.26C35.886 20.5471 36.1994 20.9204 36.4152 21.3501C36.6311 21.7798 36.7436 22.2541 36.7436 22.735C36.7436 23.2159 36.6311 23.6902 36.4152 24.1199C36.1994 24.5496 35.886 24.9229 35.5002 25.21C33.3047 26.8274 31.0176 28.3166 28.6502 29.67C26.2936 31.0444 23.8595 32.2815 21.3602 33.375C20.9183 33.5658 20.4378 33.6505 19.9573 33.6224C19.4768 33.5943 19.0095 33.4541 18.5928 33.2131C18.1762 32.9721 17.8217 32.6369 17.5577 32.2344C17.2938 31.8319 17.1277 31.3732 17.0727 30.895C16.7704 28.1856 16.6235 25.4612 16.6327 22.735C16.6327 18.8575 16.9127 15.9375 17.0727 14.575Z" />
</svg>
